<mxfile host="www.draw.io" modified="2020-02-24T09:34:27.226Z" agent="Mozilla/5.0 (Windows NT 10.0; Win64; x64) AppleWebKit/537.36 (KHTML, like Gecko) Chrome/78.0.3904.108 Safari/537.36" etag="ed1SNuXKFFGba0Phx9RK" version="12.7.4" type="github" pages="3">
  <diagram id="cfbfceXpIu6t2mLNVUXp" name="第 1 页">
    <mxGraphModel dx="947" dy="578" grid="1" gridSize="10" guides="1" tooltips="1" connect="1" arrows="1" fold="1" page="1" pageScale="1" pageWidth="1920" pageHeight="1200" math="0" shadow="0">
      <root>
        <mxCell id="0" />
        <mxCell id="1" parent="0" />
        <mxCell id="2E9C-oRiKgwrVDnKCf8d-44" value="" style="rounded=0;whiteSpace=wrap;html=1;comic=0;dashed=1;" vertex="1" parent="1">
          <mxGeometry x="40" y="850" width="170" height="90" as="geometry" />
        </mxCell>
        <mxCell id="hn4-Lr6tndSpIhgOmaXY-10" value="" style="rounded=1;whiteSpace=wrap;html=1;strokeColor=#879196;strokeWidth=2;fillColor=none;dashed=1;fontColor=#333;" parent="1" vertex="1">
          <mxGeometry x="340" y="50" width="180" height="190" as="geometry" />
        </mxCell>
        <mxCell id="hn4-Lr6tndSpIhgOmaXY-13" value="" style="rounded=1;whiteSpace=wrap;html=1;strokeColor=#879196;strokeWidth=2;fillColor=none;dashed=1;fontColor=#333;" parent="1" vertex="1">
          <mxGeometry x="340" y="270" width="180" height="170" as="geometry" />
        </mxCell>
        <mxCell id="hn4-Lr6tndSpIhgOmaXY-3" value="client" style="outlineConnect=0;gradientColor=none;fontColor=#333;strokeColor=none;fillColor=#333;dashed=0;verticalLabelPosition=bottom;verticalAlign=top;align=center;html=1;fontSize=12;fontStyle=0;aspect=fixed;shape=mxgraph.aws4.illustration_devices;pointerEvents=1" parent="1" vertex="1">
          <mxGeometry x="80" y="117" width="100" height="73" as="geometry" />
        </mxCell>
        <mxCell id="hn4-Lr6tndSpIhgOmaXY-5" value="www.jt.com" style="pointerEvents=1;shadow=0;dashed=0;html=1;strokeColor=#333;fillColor=none;labelPosition=center;verticalLabelPosition=bottom;verticalAlign=top;outlineConnect=0;align=center;shape=mxgraph.office.servers.server_generic;strokeWidth=2;fontColor=#333;" parent="1" vertex="1">
          <mxGeometry x="360" y="93" width="50" height="80" as="geometry" />
        </mxCell>
        <mxCell id="hn4-Lr6tndSpIhgOmaXY-6" value="" style="endArrow=classic;html=1;" parent="1" edge="1">
          <mxGeometry width="50" height="50" relative="1" as="geometry">
            <mxPoint x="190" y="132.5" as="sourcePoint" />
            <mxPoint x="330" y="132.5" as="targetPoint" />
          </mxGeometry>
        </mxCell>
        <mxCell id="hn4-Lr6tndSpIhgOmaXY-7" value="log.jt.com" style="pointerEvents=1;shadow=0;dashed=0;html=1;strokeColor=#333;fillColor=none;labelPosition=center;verticalLabelPosition=bottom;verticalAlign=top;outlineConnect=0;align=center;shape=mxgraph.office.servers.file_server;strokeWidth=2;fontColor=#333;" parent="1" vertex="1">
          <mxGeometry x="359.9999999999999" y="300" width="72.32" height="90" as="geometry" />
        </mxCell>
        <mxCell id="hn4-Lr6tndSpIhgOmaXY-8" value="a.jsp" style="pointerEvents=1;shadow=0;dashed=0;html=1;strokeColor=none;fillColor=#505050;labelPosition=center;verticalLabelPosition=bottom;verticalAlign=top;outlineConnect=0;align=center;shape=mxgraph.office.concepts.web_page;" parent="1" vertex="1">
          <mxGeometry x="450" y="63" width="50" height="54" as="geometry" />
        </mxCell>
        <mxCell id="hn4-Lr6tndSpIhgOmaXY-9" value="b.jsp" style="pointerEvents=1;shadow=0;dashed=0;html=1;strokeColor=none;fillColor=#505050;labelPosition=center;verticalLabelPosition=bottom;verticalAlign=top;outlineConnect=0;align=center;shape=mxgraph.office.concepts.web_page;" parent="1" vertex="1">
          <mxGeometry x="450" y="149" width="50" height="54" as="geometry" />
        </mxCell>
        <mxCell id="hn4-Lr6tndSpIhgOmaXY-11" value="html/css+&lt;b&gt;&lt;font color=&quot;#cc0000&quot;&gt;js&lt;/font&gt;&lt;/b&gt;" style="endArrow=classic;html=1;" parent="1" edge="1">
          <mxGeometry width="50" height="50" relative="1" as="geometry">
            <mxPoint x="330" y="173" as="sourcePoint" />
            <mxPoint x="190" y="173" as="targetPoint" />
            <mxPoint as="offset" />
          </mxGeometry>
        </mxCell>
        <mxCell id="hn4-Lr6tndSpIhgOmaXY-12" value="" style="endArrow=classic;html=1;" parent="1" edge="1">
          <mxGeometry width="50" height="50" relative="1" as="geometry">
            <mxPoint x="130" y="220" as="sourcePoint" />
            <mxPoint x="330" y="340" as="targetPoint" />
            <Array as="points">
              <mxPoint x="130" y="340" />
            </Array>
          </mxGeometry>
        </mxCell>
        <mxCell id="hn4-Lr6tndSpIhgOmaXY-18" value="&lt;br&gt;&lt;br&gt;&lt;br&gt;&lt;br&gt;&lt;br&gt;&lt;br&gt;&lt;br&gt;LogServlet" style="shape=note;whiteSpace=wrap;html=1;backgroundOutline=1;darkOpacity=0.05;shadow=0;strokeColor=#333333;strokeWidth=2;fillColor=none;fontColor=#333;size=18;" parent="1" vertex="1">
          <mxGeometry x="455" y="310" width="45" height="60" as="geometry" />
        </mxCell>
        <mxCell id="W54uMN7NJSDBKbqZ157n-1" value="" style="rounded=1;whiteSpace=wrap;html=1;fontSize=14;" vertex="1" parent="1">
          <mxGeometry x="1300" y="277" width="320" height="120" as="geometry" />
        </mxCell>
        <mxCell id="W54uMN7NJSDBKbqZ157n-2" style="edgeStyle=none;rounded=0;comic=0;orthogonalLoop=1;jettySize=auto;html=1;fontSize=14;entryX=1.006;entryY=0.224;entryDx=0;entryDy=0;entryPerimeter=0;endArrow=none;endFill=0;" edge="1" parent="1" source="W54uMN7NJSDBKbqZ157n-3">
          <mxGeometry relative="1" as="geometry">
            <mxPoint x="1260.6599999999999" y="177.63999999999987" as="targetPoint" />
          </mxGeometry>
        </mxCell>
        <mxCell id="W54uMN7NJSDBKbqZ157n-3" value="" style="rounded=1;whiteSpace=wrap;html=1;fontSize=14;" vertex="1" parent="1">
          <mxGeometry x="1300" y="117" width="320" height="120" as="geometry" />
        </mxCell>
        <mxCell id="W54uMN7NJSDBKbqZ157n-4" value="" style="edgeStyle=orthogonalEdgeStyle;rounded=0;orthogonalLoop=1;jettySize=auto;html=1;fontSize=14;exitX=1;exitY=0.25;exitDx=0;exitDy=0;entryX=0;entryY=0.25;entryDx=0;entryDy=0;" edge="1" parent="1" source="W54uMN7NJSDBKbqZ157n-6" target="W54uMN7NJSDBKbqZ157n-8">
          <mxGeometry relative="1" as="geometry" />
        </mxCell>
        <mxCell id="W54uMN7NJSDBKbqZ157n-5" value="get?k=v&amp;amp;k1=v1..." style="rounded=0;orthogonalLoop=1;jettySize=auto;html=1;entryX=0;entryY=0.5;entryDx=0;entryDy=0;fontSize=14;exitX=0.5;exitY=1;exitDx=0;exitDy=0;" edge="1" parent="1" source="W54uMN7NJSDBKbqZ157n-6" target="W54uMN7NJSDBKbqZ157n-11">
          <mxGeometry x="-0.0274" y="-1" relative="1" as="geometry">
            <mxPoint as="offset" />
          </mxGeometry>
        </mxCell>
        <mxCell id="W54uMN7NJSDBKbqZ157n-6" value="浏览器&lt;br&gt;&lt;br&gt;&lt;br&gt;&lt;br&gt;&lt;br&gt;" style="rounded=1;whiteSpace=wrap;html=1;fontSize=14;" vertex="1" parent="1">
          <mxGeometry x="780" y="117" width="110" height="140" as="geometry" />
        </mxCell>
        <mxCell id="W54uMN7NJSDBKbqZ157n-7" style="edgeStyle=orthogonalEdgeStyle;rounded=0;orthogonalLoop=1;jettySize=auto;html=1;fontSize=14;" edge="1" parent="1" source="W54uMN7NJSDBKbqZ157n-8">
          <mxGeometry relative="1" as="geometry">
            <mxPoint x="890" y="227" as="targetPoint" />
            <Array as="points">
              <mxPoint x="890" y="227" />
            </Array>
          </mxGeometry>
        </mxCell>
        <mxCell id="W54uMN7NJSDBKbqZ157n-8" value="服务器&lt;br&gt;&lt;br&gt;&lt;br&gt;&lt;br&gt;&lt;br&gt;" style="rounded=1;whiteSpace=wrap;html=1;fontSize=14;" vertex="1" parent="1">
          <mxGeometry x="970" y="117" width="110" height="140" as="geometry" />
        </mxCell>
        <mxCell id="W54uMN7NJSDBKbqZ157n-9" value="&lt;b&gt;&lt;font face=&quot;Lucida Console&quot;&gt;JS&lt;/font&gt;&lt;/b&gt;&lt;br&gt;埋点" style="rhombus;whiteSpace=wrap;html=1;fontSize=14;" vertex="1" parent="1">
          <mxGeometry x="795" y="177" width="80" height="70" as="geometry" />
        </mxCell>
        <mxCell id="W54uMN7NJSDBKbqZ157n-10" value="Log4j" style="edgeStyle=none;rounded=0;orthogonalLoop=1;jettySize=auto;html=1;fontSize=14;exitX=1;exitY=0.5;exitDx=0;exitDy=0;entryX=0.01;entryY=0.777;entryDx=0;entryDy=0;entryPerimeter=0;endWidth=28.513674197384066;endSize=10.03448275862069;" edge="1" parent="1" source="W54uMN7NJSDBKbqZ157n-11" target="W54uMN7NJSDBKbqZ157n-12">
          <mxGeometry x="-0.1557" y="1" relative="1" as="geometry">
            <mxPoint x="1080" y="358" as="sourcePoint" />
            <mxPoint x="1140.66" y="357.72" as="targetPoint" />
            <mxPoint as="offset" />
          </mxGeometry>
        </mxCell>
        <mxCell id="W54uMN7NJSDBKbqZ157n-11" value="日志收集服务器&lt;br&gt;&lt;b&gt;&lt;font face=&quot;Lucida Console&quot;&gt;LogServlet&lt;/font&gt;&lt;/b&gt;" style="rounded=1;whiteSpace=wrap;html=1;fontSize=14;" vertex="1" parent="1">
          <mxGeometry x="970" y="277" width="110" height="120" as="geometry" />
        </mxCell>
        <mxCell id="W54uMN7NJSDBKbqZ157n-12" value="&lt;font face=&quot;Lucida Console&quot;&gt;&lt;b&gt;flume&lt;/b&gt;&lt;/font&gt;&lt;br&gt;日志收集工具" style="rounded=1;whiteSpace=wrap;html=1;fontSize=14;" vertex="1" parent="1">
          <mxGeometry x="1150" y="117" width="110" height="280" as="geometry" />
        </mxCell>
        <mxCell id="W54uMN7NJSDBKbqZ157n-14" value="" style="edgeStyle=none;rounded=0;comic=0;orthogonalLoop=1;jettySize=auto;html=1;fontSize=14;exitX=1;exitY=0.25;exitDx=0;exitDy=0;entryX=0;entryY=0.25;entryDx=0;entryDy=0;" edge="1" parent="1" source="W54uMN7NJSDBKbqZ157n-15" target="W54uMN7NJSDBKbqZ157n-16">
          <mxGeometry relative="1" as="geometry" />
        </mxCell>
        <mxCell id="2E9C-oRiKgwrVDnKCf8d-19" value="少量数据的导出" style="edgeStyle=elbowEdgeStyle;rounded=0;orthogonalLoop=1;jettySize=auto;html=1;entryX=0.5;entryY=0;entryDx=0;entryDy=0;exitX=0.5;exitY=0;exitDx=0;exitDy=0;" edge="1" parent="1" source="W54uMN7NJSDBKbqZ157n-15" target="2E9C-oRiKgwrVDnKCf8d-18">
          <mxGeometry relative="1" as="geometry">
            <Array as="points">
              <mxPoint x="1522" y="80" />
            </Array>
          </mxGeometry>
        </mxCell>
        <mxCell id="W54uMN7NJSDBKbqZ157n-15" value="HDFS&lt;br&gt;数据存储" style="rounded=1;whiteSpace=wrap;html=1;fontSize=14;" vertex="1" parent="1">
          <mxGeometry x="1320" y="137" width="120" height="80" as="geometry" />
        </mxCell>
        <mxCell id="2E9C-oRiKgwrVDnKCf8d-17" style="edgeStyle=none;rounded=0;orthogonalLoop=1;jettySize=auto;html=1;entryX=1;entryY=0.75;entryDx=0;entryDy=0;exitX=0;exitY=0.75;exitDx=0;exitDy=0;" edge="1" parent="1" source="W54uMN7NJSDBKbqZ157n-16" target="W54uMN7NJSDBKbqZ157n-15">
          <mxGeometry relative="1" as="geometry" />
        </mxCell>
        <mxCell id="W54uMN7NJSDBKbqZ157n-16" value="Hive&lt;br&gt;数据处理&lt;br&gt;数据清洗&lt;br&gt;&lt;b&gt;离线处理&lt;/b&gt;" style="rounded=1;whiteSpace=wrap;html=1;fontSize=14;" vertex="1" parent="1">
          <mxGeometry x="1480" y="137" width="120" height="80" as="geometry" />
        </mxCell>
        <mxCell id="W54uMN7NJSDBKbqZ157n-18" value="Kafka（MQ）&lt;br&gt;削峰平谷" style="rounded=1;whiteSpace=wrap;html=1;fontSize=14;" vertex="1" parent="1">
          <mxGeometry x="1320" y="297" width="120" height="80" as="geometry" />
        </mxCell>
        <mxCell id="W54uMN7NJSDBKbqZ157n-20" style="edgeStyle=none;rounded=0;comic=0;orthogonalLoop=1;jettySize=auto;html=1;fontSize=14;entryX=1.006;entryY=0.224;entryDx=0;entryDy=0;entryPerimeter=0;endArrow=none;endFill=0;" edge="1" parent="1">
          <mxGeometry relative="1" as="geometry">
            <mxPoint x="1260.6599999999999" y="336.8899999999999" as="targetPoint" />
            <mxPoint x="1300" y="336.7636951941406" as="sourcePoint" />
          </mxGeometry>
        </mxCell>
        <mxCell id="W54uMN7NJSDBKbqZ157n-21" value="用户请求" style="shape=flexArrow;endArrow=classic;html=1;fontSize=14;endWidth=50;endSize=10;width=48;" edge="1" parent="1">
          <mxGeometry width="50" height="50" relative="1" as="geometry">
            <mxPoint x="650" y="186.5" as="sourcePoint" />
            <mxPoint x="760" y="186.5" as="targetPoint" />
          </mxGeometry>
        </mxCell>
        <mxCell id="W54uMN7NJSDBKbqZ157n-22" value="mysql" style="rounded=1;whiteSpace=wrap;html=1;" vertex="1" parent="1">
          <mxGeometry x="1720" y="154" width="51.33" height="44" as="geometry" />
        </mxCell>
        <mxCell id="tuWvKt4FF0OUbdxy8NSD-1" value="" style="rounded=0;whiteSpace=wrap;html=1;fontSize=14;dashed=1;comic=1;" vertex="1" parent="1">
          <mxGeometry x="80" y="550" width="300" height="220" as="geometry" />
        </mxCell>
        <mxCell id="tuWvKt4FF0OUbdxy8NSD-2" value="HDFS" style="rounded=0;whiteSpace=wrap;html=1;fontSize=14;comic=1;" vertex="1" parent="1">
          <mxGeometry x="90" y="700" width="280" height="60" as="geometry" />
        </mxCell>
        <mxCell id="tuWvKt4FF0OUbdxy8NSD-3" value="Yarn" style="rounded=0;whiteSpace=wrap;html=1;fontSize=14;comic=1;" vertex="1" parent="1">
          <mxGeometry x="90" y="630" width="280" height="60" as="geometry" />
        </mxCell>
        <mxCell id="tuWvKt4FF0OUbdxy8NSD-4" value="Mapreduce" style="rounded=0;whiteSpace=wrap;html=1;fontSize=14;comic=1;" vertex="1" parent="1">
          <mxGeometry x="90" y="560" width="180" height="60" as="geometry" />
        </mxCell>
        <mxCell id="tuWvKt4FF0OUbdxy8NSD-5" value="others" style="rounded=0;whiteSpace=wrap;html=1;fontSize=14;comic=1;" vertex="1" parent="1">
          <mxGeometry x="280" y="560" width="90" height="60" as="geometry" />
        </mxCell>
        <mxCell id="tuWvKt4FF0OUbdxy8NSD-6" value="Hadoop 2.x 以上" style="text;html=1;strokeColor=none;fillColor=none;align=left;verticalAlign=middle;whiteSpace=wrap;rounded=0;fontSize=14;comic=1;" vertex="1" parent="1">
          <mxGeometry x="80" y="520" width="119" height="20" as="geometry" />
        </mxCell>
        <mxCell id="tuWvKt4FF0OUbdxy8NSD-7" value="" style="shape=flexArrow;endArrow=classic;html=1;fontSize=14;fillColor=#ffffff;comic=1;" edge="1" parent="1">
          <mxGeometry width="50" height="50" relative="1" as="geometry">
            <mxPoint x="340" y="659.5" as="sourcePoint" />
            <mxPoint x="440" y="659.5" as="targetPoint" />
          </mxGeometry>
        </mxCell>
        <mxCell id="tuWvKt4FF0OUbdxy8NSD-8" value="相当于排插" style="text;html=1;strokeColor=none;fillColor=none;align=center;verticalAlign=middle;whiteSpace=wrap;rounded=0;fontSize=14;comic=1;" vertex="1" parent="1">
          <mxGeometry x="460" y="645" width="90" height="30" as="geometry" />
        </mxCell>
        <mxCell id="2E9C-oRiKgwrVDnKCf8d-1" value="" style="rounded=1;whiteSpace=wrap;html=1;fontSize=14;comic=0;fontFamily=Comic Sans MS;" vertex="1" parent="1">
          <mxGeometry x="880" y="520" width="380" height="230" as="geometry" />
        </mxCell>
        <mxCell id="2E9C-oRiKgwrVDnKCf8d-2" style="rounded=0;comic=0;orthogonalLoop=1;jettySize=auto;html=1;fontSize=14;fontFamily=Comic Sans MS;" edge="1" parent="1" source="2E9C-oRiKgwrVDnKCf8d-3" target="2E9C-oRiKgwrVDnKCf8d-5">
          <mxGeometry relative="1" as="geometry" />
        </mxCell>
        <mxCell id="2E9C-oRiKgwrVDnKCf8d-3" value="webServer" style="ellipse;shape=cloud;whiteSpace=wrap;html=1;fontSize=14;comic=1;fontFamily=Comic Sans MS;" vertex="1" parent="1">
          <mxGeometry x="650" y="570" width="195" height="130" as="geometry" />
        </mxCell>
        <mxCell id="2E9C-oRiKgwrVDnKCf8d-4" style="edgeStyle=none;rounded=0;comic=1;orthogonalLoop=1;jettySize=auto;html=1;fontFamily=Comic Sans MS;fontSize=14;" edge="1" parent="1" source="2E9C-oRiKgwrVDnKCf8d-5" target="2E9C-oRiKgwrVDnKCf8d-11">
          <mxGeometry relative="1" as="geometry" />
        </mxCell>
        <mxCell id="2E9C-oRiKgwrVDnKCf8d-5" value="Source" style="ellipse;whiteSpace=wrap;html=1;fontSize=14;fontFamily=Comic Sans MS;" vertex="1" parent="1">
          <mxGeometry x="915" y="550" width="120" height="80" as="geometry" />
        </mxCell>
        <mxCell id="2E9C-oRiKgwrVDnKCf8d-6" style="rounded=0;comic=0;orthogonalLoop=1;jettySize=auto;html=1;fontFamily=Comic Sans MS;fontSize=14;entryX=0.001;entryY=0.402;entryDx=0;entryDy=0;entryPerimeter=0;" edge="1" parent="1" source="2E9C-oRiKgwrVDnKCf8d-8" target="2E9C-oRiKgwrVDnKCf8d-11">
          <mxGeometry relative="1" as="geometry" />
        </mxCell>
        <mxCell id="2E9C-oRiKgwrVDnKCf8d-7" style="edgeStyle=none;rounded=0;comic=0;orthogonalLoop=1;jettySize=auto;html=1;fontFamily=Comic Sans MS;fontSize=14;" edge="1" parent="1" source="2E9C-oRiKgwrVDnKCf8d-8" target="2E9C-oRiKgwrVDnKCf8d-9">
          <mxGeometry relative="1" as="geometry" />
        </mxCell>
        <mxCell id="2E9C-oRiKgwrVDnKCf8d-8" value="Sink" style="ellipse;whiteSpace=wrap;html=1;fontSize=14;comic=1;fontFamily=Comic Sans MS;" vertex="1" parent="1">
          <mxGeometry x="1105" y="550" width="120" height="80" as="geometry" />
        </mxCell>
        <mxCell id="2E9C-oRiKgwrVDnKCf8d-9" value="HDFS" style="shape=hexagon;perimeter=hexagonPerimeter2;whiteSpace=wrap;html=1;fontSize=14;rotation=90;horizontal=0;comic=0;fontFamily=Comic Sans MS;" vertex="1" parent="1">
          <mxGeometry x="1300" y="580" width="115" height="110" as="geometry" />
        </mxCell>
        <mxCell id="2E9C-oRiKgwrVDnKCf8d-10" style="rounded=0;comic=0;orthogonalLoop=1;jettySize=auto;html=1;fontFamily=Comic Sans MS;fontSize=14;entryX=0.34;entryY=0.965;entryDx=0;entryDy=0;entryPerimeter=0;exitX=0;exitY=0.3;exitDx=0;exitDy=0;" edge="1" parent="1" source="2E9C-oRiKgwrVDnKCf8d-11" target="2E9C-oRiKgwrVDnKCf8d-8">
          <mxGeometry relative="1" as="geometry" />
        </mxCell>
        <mxCell id="2E9C-oRiKgwrVDnKCf8d-11" value="Channel" style="shape=cylinder;whiteSpace=wrap;html=1;boundedLbl=1;backgroundOutline=1;fontSize=14;rotation=90;horizontal=0;fontFamily=Comic Sans MS;" vertex="1" parent="1">
          <mxGeometry x="1040" y="590" width="60" height="200" as="geometry" />
        </mxCell>
        <mxCell id="2E9C-oRiKgwrVDnKCf8d-12" value="Agent" style="text;html=1;strokeColor=none;fillColor=none;align=center;verticalAlign=middle;whiteSpace=wrap;rounded=0;fontSize=14;fontFamily=Comic Sans MS;" vertex="1" parent="1">
          <mxGeometry x="900" y="710" width="40" height="20" as="geometry" />
        </mxCell>
        <mxCell id="2E9C-oRiKgwrVDnKCf8d-13" value="" style="endArrow=none;dashed=1;html=1;dashPattern=1 4;" edge="1" parent="1">
          <mxGeometry width="50" height="50" relative="1" as="geometry">
            <mxPoint x="600" y="800" as="sourcePoint" />
            <mxPoint x="600" as="targetPoint" />
          </mxGeometry>
        </mxCell>
        <mxCell id="2E9C-oRiKgwrVDnKCf8d-14" value="" style="endArrow=none;dashed=1;html=1;dashPattern=1 4;" edge="1" parent="1">
          <mxGeometry width="50" height="50" relative="1" as="geometry">
            <mxPoint x="1910" y="480" as="sourcePoint" />
            <mxPoint y="480" as="targetPoint" />
          </mxGeometry>
        </mxCell>
        <mxCell id="2E9C-oRiKgwrVDnKCf8d-15" value="" style="endArrow=none;dashed=1;html=1;dashPattern=1 4;" edge="1" parent="1">
          <mxGeometry width="50" height="50" relative="1" as="geometry">
            <mxPoint x="1915" y="800" as="sourcePoint" />
            <mxPoint x="5" y="800" as="targetPoint" />
          </mxGeometry>
        </mxCell>
        <mxCell id="2E9C-oRiKgwrVDnKCf8d-20" style="edgeStyle=elbowEdgeStyle;rounded=0;orthogonalLoop=1;jettySize=auto;html=1;" edge="1" parent="1" source="2E9C-oRiKgwrVDnKCf8d-18" target="W54uMN7NJSDBKbqZ157n-22">
          <mxGeometry relative="1" as="geometry" />
        </mxCell>
        <mxCell id="2E9C-oRiKgwrVDnKCf8d-18" value="Sqoop" style="rhombus;whiteSpace=wrap;html=1;" vertex="1" parent="1">
          <mxGeometry x="1630" y="144" width="70" height="64" as="geometry" />
        </mxCell>
        <mxCell id="2E9C-oRiKgwrVDnKCf8d-31" style="rounded=0;orthogonalLoop=1;jettySize=auto;html=1;" edge="1" parent="1" source="2E9C-oRiKgwrVDnKCf8d-22" target="2E9C-oRiKgwrVDnKCf8d-30">
          <mxGeometry relative="1" as="geometry" />
        </mxCell>
        <mxCell id="2E9C-oRiKgwrVDnKCf8d-32" style="edgeStyle=none;rounded=0;orthogonalLoop=1;jettySize=auto;html=1;" edge="1" parent="1" source="2E9C-oRiKgwrVDnKCf8d-22" target="W54uMN7NJSDBKbqZ157n-22">
          <mxGeometry relative="1" as="geometry" />
        </mxCell>
        <mxCell id="2E9C-oRiKgwrVDnKCf8d-34" style="edgeStyle=none;rounded=0;orthogonalLoop=1;jettySize=auto;html=1;entryX=0;entryY=0.5;entryDx=0;entryDy=0;" edge="1" parent="1" source="2E9C-oRiKgwrVDnKCf8d-22" target="2E9C-oRiKgwrVDnKCf8d-33">
          <mxGeometry relative="1" as="geometry" />
        </mxCell>
        <mxCell id="2E9C-oRiKgwrVDnKCf8d-22" value="实时处理&lt;br&gt;&lt;font color=&quot;#999999&quot;&gt;storm&lt;/font&gt;&lt;br&gt;&lt;b&gt;flink&lt;/b&gt;&lt;br&gt;&lt;font color=&quot;#999999&quot;&gt;spark&lt;/font&gt;" style="rounded=1;whiteSpace=wrap;html=1;fontSize=14;" vertex="1" parent="1">
          <mxGeometry x="1480" y="297" width="120" height="80" as="geometry" />
        </mxCell>
        <mxCell id="2E9C-oRiKgwrVDnKCf8d-24" value="Solr&lt;br&gt;ES" style="rounded=1;whiteSpace=wrap;html=1;fontSize=14;" vertex="1" parent="1">
          <mxGeometry x="1640" y="277" width="80" height="53" as="geometry" />
        </mxCell>
        <mxCell id="2E9C-oRiKgwrVDnKCf8d-25" value="Solr：检索速度快，但是索引更新慢" style="text;html=1;strokeColor=none;fillColor=none;align=center;verticalAlign=middle;whiteSpace=wrap;rounded=0;" vertex="1" parent="1">
          <mxGeometry x="1720" y="283.5" width="200" height="20" as="geometry" />
        </mxCell>
        <mxCell id="2E9C-oRiKgwrVDnKCf8d-28" value="ES：检索速度稍慢，但是索引更新快" style="text;html=1;strokeColor=none;fillColor=none;align=center;verticalAlign=middle;whiteSpace=wrap;rounded=0;" vertex="1" parent="1">
          <mxGeometry x="1720" y="303.5" width="200" height="20" as="geometry" />
        </mxCell>
        <mxCell id="2E9C-oRiKgwrVDnKCf8d-30" value="redis" style="rounded=1;whiteSpace=wrap;html=1;fontSize=14;" vertex="1" parent="1">
          <mxGeometry x="1640" y="344" width="80" height="53" as="geometry" />
        </mxCell>
        <mxCell id="2E9C-oRiKgwrVDnKCf8d-33" value="Hbase" style="rounded=1;whiteSpace=wrap;html=1;fontSize=14;" vertex="1" parent="1">
          <mxGeometry x="1640" y="410" width="80" height="53" as="geometry" />
        </mxCell>
        <mxCell id="2E9C-oRiKgwrVDnKCf8d-35" value="" style="shape=curlyBracket;whiteSpace=wrap;html=1;rounded=1;size=0.46206896551724413;rotation=-180;" vertex="1" parent="1">
          <mxGeometry x="1730" y="360" width="20" height="86" as="geometry" />
        </mxCell>
        <mxCell id="2E9C-oRiKgwrVDnKCf8d-36" value="" style="rounded=0;whiteSpace=wrap;html=1;fontSize=14;dashed=1;comic=0;" vertex="1" parent="1">
          <mxGeometry x="40" y="950" width="300" height="220" as="geometry" />
        </mxCell>
        <mxCell id="2E9C-oRiKgwrVDnKCf8d-37" value="HDFS存储" style="rounded=0;whiteSpace=wrap;html=1;fontSize=14;comic=0;" vertex="1" parent="1">
          <mxGeometry x="50" y="1100" width="280" height="60" as="geometry" />
        </mxCell>
        <mxCell id="2E9C-oRiKgwrVDnKCf8d-38" value="Yarn资源管理" style="rounded=0;whiteSpace=wrap;html=1;fontSize=14;comic=0;" vertex="1" parent="1">
          <mxGeometry x="50" y="1030" width="280" height="60" as="geometry" />
        </mxCell>
        <mxCell id="2E9C-oRiKgwrVDnKCf8d-39" value="Mapreduce离线处理" style="rounded=0;whiteSpace=wrap;html=1;fontSize=14;comic=0;" vertex="1" parent="1">
          <mxGeometry x="50" y="960" width="180" height="60" as="geometry" />
        </mxCell>
        <mxCell id="2E9C-oRiKgwrVDnKCf8d-40" value="others" style="rounded=0;whiteSpace=wrap;html=1;fontSize=14;comic=0;" vertex="1" parent="1">
          <mxGeometry x="240" y="960" width="90" height="60" as="geometry" />
        </mxCell>
        <mxCell id="2E9C-oRiKgwrVDnKCf8d-42" value="mapper&lt;br&gt;reducer&lt;br&gt;driver&lt;br&gt;……&lt;br&gt;" style="shape=flexArrow;endArrow=classic;html=1;endWidth=39.310344827586206;endSize=10.137931034482758;width=60;labelBackgroundColor=none;" edge="1" parent="1">
          <mxGeometry width="50" height="50" relative="1" as="geometry">
            <mxPoint x="139" y="860" as="sourcePoint" />
            <mxPoint x="139.16" y="960" as="targetPoint" />
          </mxGeometry>
        </mxCell>
        <mxCell id="2E9C-oRiKgwrVDnKCf8d-45" value="Hive" style="text;html=1;strokeColor=none;fillColor=none;align=center;verticalAlign=middle;whiteSpace=wrap;rounded=0;dashed=1;comic=0;fontStyle=1" vertex="1" parent="1">
          <mxGeometry x="40" y="830" width="40" height="20" as="geometry" />
        </mxCell>
        <mxCell id="2E9C-oRiKgwrVDnKCf8d-46" value="hadoop" style="text;html=1;align=center;verticalAlign=middle;resizable=0;points=[];autosize=1;" vertex="1" parent="1">
          <mxGeometry x="40" y="920" width="60" height="20" as="geometry" />
        </mxCell>
        <mxCell id="2E9C-oRiKgwrVDnKCf8d-47" value="翻译" style="text;html=1;strokeColor=none;fillColor=none;align=center;verticalAlign=middle;whiteSpace=wrap;rounded=0;dashed=1;comic=0;" vertex="1" parent="1">
          <mxGeometry x="40" y="850" width="40" height="20" as="geometry" />
        </mxCell>
        <mxCell id="2E9C-oRiKgwrVDnKCf8d-48" value="类SQL" style="shape=flexArrow;endArrow=classic;html=1;endWidth=39.12009512485137;endSize=7.406896551724138;width=31.03448275862069;labelBackgroundColor=none;" edge="1" parent="1">
          <mxGeometry x="-0.0896" width="50" height="50" relative="1" as="geometry">
            <mxPoint x="340" y="895" as="sourcePoint" />
            <mxPoint x="220.16000000000008" y="894.66" as="targetPoint" />
            <mxPoint as="offset" />
          </mxGeometry>
        </mxCell>
      </root>
    </mxGraphModel>
  </diagram>
  <diagram id="eFa5hQdMBKlKPxvFbkuM" name="第 2 页">
    <mxGraphModel dx="1662" dy="838" grid="1" gridSize="10" guides="1" tooltips="1" connect="1" arrows="1" fold="1" page="1" pageScale="1" pageWidth="1920" pageHeight="1200" math="0" shadow="0">
      <root>
        <mxCell id="J1c8BSzoJTzlrFZl3jKa-0" />
        <mxCell id="J1c8BSzoJTzlrFZl3jKa-1" parent="J1c8BSzoJTzlrFZl3jKa-0" />
        <mxCell id="J1c8BSzoJTzlrFZl3jKa-21" value="" style="rounded=1;whiteSpace=wrap;html=1;fontSize=14;" parent="J1c8BSzoJTzlrFZl3jKa-1" vertex="1">
          <mxGeometry x="720" y="320" width="320" height="120" as="geometry" />
        </mxCell>
        <mxCell id="J1c8BSzoJTzlrFZl3jKa-22" style="edgeStyle=none;rounded=0;comic=0;orthogonalLoop=1;jettySize=auto;html=1;fontSize=14;entryX=1.006;entryY=0.224;entryDx=0;entryDy=0;entryPerimeter=0;endArrow=none;endFill=0;" parent="J1c8BSzoJTzlrFZl3jKa-1" source="J1c8BSzoJTzlrFZl3jKa-20" edge="1">
          <mxGeometry relative="1" as="geometry">
            <mxPoint x="680.6599999999999" y="220.64" as="targetPoint" />
          </mxGeometry>
        </mxCell>
        <mxCell id="J1c8BSzoJTzlrFZl3jKa-20" value="" style="rounded=1;whiteSpace=wrap;html=1;fontSize=14;" parent="J1c8BSzoJTzlrFZl3jKa-1" vertex="1">
          <mxGeometry x="720" y="160" width="320" height="120" as="geometry" />
        </mxCell>
        <mxCell id="J1c8BSzoJTzlrFZl3jKa-5" value="" style="edgeStyle=orthogonalEdgeStyle;rounded=0;orthogonalLoop=1;jettySize=auto;html=1;fontSize=14;exitX=1;exitY=0.25;exitDx=0;exitDy=0;entryX=0;entryY=0.25;entryDx=0;entryDy=0;" parent="J1c8BSzoJTzlrFZl3jKa-1" source="J1c8BSzoJTzlrFZl3jKa-2" target="J1c8BSzoJTzlrFZl3jKa-4" edge="1">
          <mxGeometry relative="1" as="geometry" />
        </mxCell>
        <mxCell id="J1c8BSzoJTzlrFZl3jKa-9" value="get?k=v&amp;amp;k1=v1..." style="rounded=0;orthogonalLoop=1;jettySize=auto;html=1;entryX=0;entryY=0.5;entryDx=0;entryDy=0;fontSize=14;exitX=0.5;exitY=1;exitDx=0;exitDy=0;" parent="J1c8BSzoJTzlrFZl3jKa-1" source="J1c8BSzoJTzlrFZl3jKa-2" target="J1c8BSzoJTzlrFZl3jKa-7" edge="1">
          <mxGeometry x="-0.0274" y="-1" relative="1" as="geometry">
            <mxPoint as="offset" />
          </mxGeometry>
        </mxCell>
        <mxCell id="J1c8BSzoJTzlrFZl3jKa-2" value="浏览器&lt;br&gt;&lt;br&gt;&lt;br&gt;&lt;br&gt;&lt;br&gt;" style="rounded=1;whiteSpace=wrap;html=1;fontSize=14;" parent="J1c8BSzoJTzlrFZl3jKa-1" vertex="1">
          <mxGeometry x="200" y="160" width="110" height="140" as="geometry" />
        </mxCell>
        <mxCell id="J1c8BSzoJTzlrFZl3jKa-6" style="edgeStyle=orthogonalEdgeStyle;rounded=0;orthogonalLoop=1;jettySize=auto;html=1;fontSize=14;" parent="J1c8BSzoJTzlrFZl3jKa-1" source="J1c8BSzoJTzlrFZl3jKa-4" edge="1">
          <mxGeometry relative="1" as="geometry">
            <mxPoint x="310" y="270" as="targetPoint" />
            <Array as="points">
              <mxPoint x="310" y="270" />
            </Array>
          </mxGeometry>
        </mxCell>
        <mxCell id="J1c8BSzoJTzlrFZl3jKa-4" value="服务器&lt;br&gt;&lt;br&gt;&lt;br&gt;&lt;br&gt;&lt;br&gt;" style="rounded=1;whiteSpace=wrap;html=1;fontSize=14;" parent="J1c8BSzoJTzlrFZl3jKa-1" vertex="1">
          <mxGeometry x="390" y="160" width="110" height="140" as="geometry" />
        </mxCell>
        <mxCell id="J1c8BSzoJTzlrFZl3jKa-3" value="&lt;b&gt;&lt;font face=&quot;Lucida Console&quot;&gt;JS&lt;/font&gt;&lt;/b&gt;&lt;br&gt;埋点" style="rhombus;whiteSpace=wrap;html=1;fontSize=14;" parent="J1c8BSzoJTzlrFZl3jKa-1" vertex="1">
          <mxGeometry x="215" y="220" width="80" height="70" as="geometry" />
        </mxCell>
        <mxCell id="J1c8BSzoJTzlrFZl3jKa-11" value="Log4j" style="edgeStyle=none;rounded=0;orthogonalLoop=1;jettySize=auto;html=1;fontSize=14;exitX=1;exitY=0.5;exitDx=0;exitDy=0;entryX=0.01;entryY=0.777;entryDx=0;entryDy=0;entryPerimeter=0;endWidth=28.513674197384066;endSize=10.03448275862069;" parent="J1c8BSzoJTzlrFZl3jKa-1" source="J1c8BSzoJTzlrFZl3jKa-7" target="J1c8BSzoJTzlrFZl3jKa-10" edge="1">
          <mxGeometry x="-0.1557" y="1" relative="1" as="geometry">
            <mxPoint x="500" y="401" as="sourcePoint" />
            <mxPoint x="560.6600000000001" y="400.72" as="targetPoint" />
            <mxPoint as="offset" />
          </mxGeometry>
        </mxCell>
        <mxCell id="J1c8BSzoJTzlrFZl3jKa-7" value="日志收集服务器&lt;br&gt;&lt;b&gt;&lt;font face=&quot;Lucida Console&quot;&gt;LogServlet&lt;/font&gt;&lt;/b&gt;" style="rounded=1;whiteSpace=wrap;html=1;fontSize=14;" parent="J1c8BSzoJTzlrFZl3jKa-1" vertex="1">
          <mxGeometry x="390" y="320" width="110" height="120" as="geometry" />
        </mxCell>
        <mxCell id="J1c8BSzoJTzlrFZl3jKa-10" value="&lt;font face=&quot;Lucida Console&quot;&gt;&lt;b&gt;flume&lt;/b&gt;&lt;/font&gt;&lt;br&gt;日志收集工具" style="rounded=1;whiteSpace=wrap;html=1;fontSize=14;" parent="J1c8BSzoJTzlrFZl3jKa-1" vertex="1">
          <mxGeometry x="570" y="160" width="110" height="280" as="geometry" />
        </mxCell>
        <mxCell id="J1c8BSzoJTzlrFZl3jKa-8" value="xx网站，用户日志流量分析系统" style="text;html=1;strokeColor=none;fillColor=none;align=center;verticalAlign=middle;whiteSpace=wrap;rounded=0;fontSize=14;" parent="J1c8BSzoJTzlrFZl3jKa-1" vertex="1">
          <mxGeometry x="430" y="80" width="220" height="20" as="geometry" />
        </mxCell>
        <mxCell id="J1c8BSzoJTzlrFZl3jKa-16" value="" style="edgeStyle=none;rounded=0;comic=0;orthogonalLoop=1;jettySize=auto;html=1;fontSize=14;" parent="J1c8BSzoJTzlrFZl3jKa-1" source="J1c8BSzoJTzlrFZl3jKa-14" target="J1c8BSzoJTzlrFZl3jKa-15" edge="1">
          <mxGeometry relative="1" as="geometry" />
        </mxCell>
        <mxCell id="J1c8BSzoJTzlrFZl3jKa-14" value="HDFS&lt;br&gt;数据存储" style="rounded=1;whiteSpace=wrap;html=1;fontSize=14;" parent="J1c8BSzoJTzlrFZl3jKa-1" vertex="1">
          <mxGeometry x="740" y="180" width="120" height="80" as="geometry" />
        </mxCell>
        <mxCell id="J1c8BSzoJTzlrFZl3jKa-15" value="Hive&lt;br&gt;数据处理&lt;br&gt;数据清洗" style="rounded=1;whiteSpace=wrap;html=1;fontSize=14;" parent="J1c8BSzoJTzlrFZl3jKa-1" vertex="1">
          <mxGeometry x="900" y="180" width="120" height="80" as="geometry" />
        </mxCell>
        <mxCell id="J1c8BSzoJTzlrFZl3jKa-17" value="" style="edgeStyle=none;rounded=0;comic=0;orthogonalLoop=1;jettySize=auto;html=1;fontSize=14;" parent="J1c8BSzoJTzlrFZl3jKa-1" source="J1c8BSzoJTzlrFZl3jKa-18" target="J1c8BSzoJTzlrFZl3jKa-19" edge="1">
          <mxGeometry relative="1" as="geometry" />
        </mxCell>
        <mxCell id="J1c8BSzoJTzlrFZl3jKa-18" value="Kafka&lt;br&gt;削峰平谷" style="rounded=1;whiteSpace=wrap;html=1;fontSize=14;" parent="J1c8BSzoJTzlrFZl3jKa-1" vertex="1">
          <mxGeometry x="740" y="340" width="120" height="80" as="geometry" />
        </mxCell>
        <mxCell id="J1c8BSzoJTzlrFZl3jKa-19" value="Storm&lt;br&gt;实时分析" style="rounded=1;whiteSpace=wrap;html=1;fontSize=14;" parent="J1c8BSzoJTzlrFZl3jKa-1" vertex="1">
          <mxGeometry x="900" y="340" width="120" height="80" as="geometry" />
        </mxCell>
        <mxCell id="J1c8BSzoJTzlrFZl3jKa-23" style="edgeStyle=none;rounded=0;comic=0;orthogonalLoop=1;jettySize=auto;html=1;fontSize=14;entryX=1.006;entryY=0.224;entryDx=0;entryDy=0;entryPerimeter=0;endArrow=none;endFill=0;" parent="J1c8BSzoJTzlrFZl3jKa-1" edge="1">
          <mxGeometry relative="1" as="geometry">
            <mxPoint x="680.6600000000001" y="379.89" as="targetPoint" />
            <mxPoint x="720" y="379.7636951941406" as="sourcePoint" />
          </mxGeometry>
        </mxCell>
        <mxCell id="J1c8BSzoJTzlrFZl3jKa-24" value="用户请求" style="shape=flexArrow;endArrow=classic;html=1;fontSize=14;endWidth=50;endSize=10;width=48;" parent="J1c8BSzoJTzlrFZl3jKa-1" edge="1">
          <mxGeometry width="50" height="50" relative="1" as="geometry">
            <mxPoint x="70" y="229.5" as="sourcePoint" />
            <mxPoint x="180" y="229.5" as="targetPoint" />
          </mxGeometry>
        </mxCell>
        <mxCell id="Gh8Un5y7zo_pBvsX2O9P-0" value="mysql" style="rounded=1;whiteSpace=wrap;html=1;" parent="J1c8BSzoJTzlrFZl3jKa-1" vertex="1">
          <mxGeometry x="1060" y="160" width="70" height="60" as="geometry" />
        </mxCell>
        <mxCell id="Gh8Un5y7zo_pBvsX2O9P-1" value="HDFS" style="rounded=1;whiteSpace=wrap;html=1;" parent="J1c8BSzoJTzlrFZl3jKa-1" vertex="1">
          <mxGeometry x="1060" y="230" width="70" height="60" as="geometry" />
        </mxCell>
        <mxCell id="Gh8Un5y7zo_pBvsX2O9P-2" value="Hbase" style="rounded=1;whiteSpace=wrap;html=1;" parent="J1c8BSzoJTzlrFZl3jKa-1" vertex="1">
          <mxGeometry x="1060" y="310" width="70" height="60" as="geometry" />
        </mxCell>
        <mxCell id="Gh8Un5y7zo_pBvsX2O9P-3" value="ES" style="rounded=1;whiteSpace=wrap;html=1;" parent="J1c8BSzoJTzlrFZl3jKa-1" vertex="1">
          <mxGeometry x="1060" y="380" width="70" height="60" as="geometry" />
        </mxCell>
        <mxCell id="Gh8Un5y7zo_pBvsX2O9P-4" value="&lt;font face=&quot;Lucida Console&quot;&gt;&lt;b&gt;页面展示&lt;br&gt;&lt;/b&gt;&lt;/font&gt;" style="rounded=1;whiteSpace=wrap;html=1;fontSize=14;" parent="J1c8BSzoJTzlrFZl3jKa-1" vertex="1">
          <mxGeometry x="1150" y="160" width="110" height="280" as="geometry" />
        </mxCell>
      </root>
    </mxGraphModel>
  </diagram>
  <diagram id="-x5ESsGJ6nBgeeIvhouO" name="第 3 页">
    <mxGraphModel dx="1662" dy="838" grid="1" gridSize="10" guides="1" tooltips="1" connect="1" arrows="1" fold="1" page="1" pageScale="1" pageWidth="1920" pageHeight="1200" math="0" shadow="0">
      <root>
        <mxCell id="J5kQjMDADL3qx16qqYzx-0" />
        <mxCell id="J5kQjMDADL3qx16qqYzx-1" parent="J5kQjMDADL3qx16qqYzx-0" />
      </root>
    </mxGraphModel>
  </diagram>
</mxfile>
